<svg width="158" height="52" xmlns="http://www.w3.org/2000/svg" xmlns:xlink="http://www.w3.org/1999/xlink" overflow="hidden"><defs><clipPath id="clip0"><rect x="739" y="55" width="158" height="52"/></clipPath></defs><g clip-path="url(#clip0)" transform="translate(-739 -55)"><path d="M51.5386 41.1037 51.5386 16.6121 59.864 16.6121 59.864 44.8728 59.8524 44.8728C59.6623 49.2934 55.9591 51.6084 52.3025 51.6084L51.5386 51.6084 51.5386 41.1037Z" fill="#5D6E75" transform="matrix(1.00038 0 0 1 739.076 55)"/><path d="M55.7032 1.74109C53.4037 1.74109 51.5386 3.60239 51.5386 5.90186 51.5386 8.20134 53.4037 10.0626 55.7032 10.0626 58.0027 10.0626 59.8601 8.19359 59.8601 5.90186 59.8601 3.61014 57.9949 1.74109 55.7032 1.74109" fill="#5D6E75" transform="matrix(1.00038 0 0 1 739.076 55)"/><path d="M8.32155 41.1037 8.32155 16.6121 0 16.6121 0 44.8728 0.00775541 44.8728C0.201641 49.2934 3.90485 51.6084 7.56152 51.6084L8.32155 51.6084 8.32155 41.1037Z" fill="#5D6E75" transform="matrix(1.00038 0 0 1 739.076 55)"/><path d="M4.16465 1.74109C1.86905 1.74109 0.0038777 3.60239 0.0038777 5.90186 0.0038777 8.20134 1.86518 10.0626 4.16465 10.0626 6.46413 10.0626 8.32155 8.19359 8.32155 5.90186 8.32155 3.61014 6.46025 1.74109 4.16465 1.74109" fill="#5D6E75" transform="matrix(1.00038 0 0 1 739.076 55)"/><path d="M72.2649 30.2616C72.2881 30.1996 72.3153 30.1414 72.3424 30.0755 74.3705 25.24 78.5119 23.5105 81.711 23.5105 82.8588 23.5105 83.9911 23.7315 84.9837 24.1503 87.4422 25.1857 89.288 27.4192 90.0519 30.2267L72.2688 30.2616ZM87.9308 17.1123C85.8795 16.2515 83.7157 15.8172 81.4938 15.8172 74.3395 15.8172 67.8598 20.2261 64.9942 27.0625 63.1174 31.5412 63.0437 36.4039 64.7809 40.7663 66.522 45.1287 69.9072 48.5527 74.3084 50.3985 76.7204 51.4106 79.1245 51.9224 81.4628 51.9224 84.2664 51.9224 86.9459 51.174 89.4082 49.7354 89.5245 49.6928 89.637 49.6346 89.7417 49.5726 91.3897 48.5527 93.1735 46.9745 94.5423 45.373L95.0929 44.6944C95.4729 44.2019 95.8142 43.7211 96.0895 43.2558L96.4191 42.6935 96.0081 42.201C94.9301 40.9214 93.2898 40.1924 91.4983 40.1924 89.9162 40.1924 88.3457 40.7779 87.0777 41.8327 86.942 41.9451 86.8101 42.0614 86.6899 42.1817 86.4069 42.4608 86.1044 42.7245 85.767 42.9301 84.3129 43.8142 82.8355 44.2485 81.2767 44.2485 80.0048 44.2485 78.6553 43.9499 77.2594 43.3721 74.7195 42.3057 72.8271 40.3087 71.9392 37.8115L97.7491 37.7301 97.9469 36.6172C99.4437 28.2336 95.3256 20.2183 87.9308 17.1162" fill="#5D6E75" transform="matrix(1.00038 0 0 1 739.076 55)"/><path d="M29.362 44.0934C24.1658 44.0934 20.0981 39.5138 20.0981 33.6662 20.0981 27.8186 24.1658 23.3554 29.362 23.3554 34.5581 23.3554 38.6258 27.9815 38.6258 33.6662 38.6258 39.3509 34.4728 44.0934 29.362 44.0934M46.6371 33.6701 46.6371 0 38.746 0 38.746 16.6586 38.7305 16.6586 38.7305 19.0356C36.0277 16.8796 32.7278 15.7202 29.2379 15.7202 19.5863 15.7202 12.0248 23.6036 12.0248 33.6701 12.0248 43.7366 19.6406 51.7402 29.362 51.7402 33.228 51.7402 36.8576 50.4916 39.8085 48.196 41.3169 50.5536 44.1515 51.5773 46.5673 51.5773L46.5673 40.3553 46.5673 40.3553 46.5673 35.3259C46.61 34.783 46.6371 34.2285 46.6371 33.674" fill="#F50000" transform="matrix(1.00038 0 0 1 739.076 55)"/><path d="M155.391 19.0667C155.729 19.0667 156.023 19.0395 156.023 18.6401 156.023 18.3144 155.701 18.2756 155.43 18.2756L154.891 18.2756 154.891 19.0667 155.387 19.0667ZM154.895 20.6139 154.445 20.6139 154.445 17.8917 155.477 17.8917C156.132 17.8917 156.469 18.1244 156.469 18.675 156.469 19.1714 156.167 19.373 155.76 19.4157L156.523 20.6177 156.016 20.6177 155.314 19.4506 154.895 19.4506 154.895 20.6177ZM155.38 17.1743C154.317 17.1743 153.491 18.0119 153.491 19.2063 153.491 20.3192 154.208 21.2382 155.38 21.2382 156.434 21.2382 157.26 20.4084 157.26 19.2063 157.26 18.0042 156.43 17.1743 155.38 17.1743M155.38 21.6647C153.968 21.6647 152.964 20.6061 152.964 19.2101 152.964 17.7289 154.081 16.7478 155.38 16.7478 156.679 16.7478 157.788 17.7289 157.788 19.2101 157.788 20.6914 156.671 21.6647 155.38 21.6647" fill="#5D6E75" transform="matrix(1.00038 0 0 1 739.076 55)"/><path d="M122.838 44.7991C122.838 49.464 126.646 51.9108 130.411 51.9108L131.175 51.9108 131.175 31.1108C131.175 27.268 133.723 24.5885 137.364 24.5885 141.005 24.5885 143.553 27.268 143.553 31.1108L143.553 44.7952 143.591 45.5591C143.979 49.7277 147.57 51.9069 151.122 51.9069L151.894 51.9069 151.894 31.3125C151.894 22.8591 145.778 16.7129 137.364 16.7129 133.114 16.7129 129.473 18.3764 126.983 21.4243 124.548 18.423 120.845 16.7129 116.649 16.7129 108.231 16.7129 102.123 22.8591 102.123 31.3125L102.123 51.9961 102.123 51.9884 102.887 51.9884C106.552 51.9884 110.27 49.6734 110.46 45.2412L110.46 31.1069C110.46 27.2641 113.004 24.5846 116.649 24.5846 120.294 24.5846 122.838 27.2641 122.838 31.1069L122.838 44.7914Z" fill="#5D6E75" transform="matrix(1.00038 0 0 1 739.076 55)"/></g></svg>